<svg width="14" height="18" viewBox="0 0 14 18" fill="none" xmlns="http://www.w3.org/2000/svg">
<path d="M1 16C1 17.1 1.9 18 3 18H11C12.1 18 13 17.1 13 16V6C13 4.9 12.1 4 11 4H3C1.9 4 1 4.9 1 6V16ZM4.17 8.17C4.26251 8.0773 4.3724 8.00375 4.49338 7.95357C4.61435 7.90339 4.74403 7.87756 4.875 7.87756C5.00597 7.87756 5.13565 7.90339 5.25662 7.95357C5.3776 8.00375 5.48749 8.0773 5.58 8.17L7 9.59L8.42 8.17C8.60698 7.98302 8.86057 7.87798 9.125 7.87798C9.38943 7.87798 9.64302 7.98302 9.83 8.17C10.017 8.35698 10.122 8.61057 10.122 8.875C10.122 9.13943 10.017 9.39302 9.83 9.58L8.41 11L9.83 12.42C10.017 12.607 10.122 12.8606 10.122 13.125C10.122 13.3894 10.017 13.643 9.83 13.83C9.64302 14.017 9.38943 14.122 9.125 14.122C8.86057 14.122 8.60698 14.017 8.42 13.83L7 12.41L5.58 13.83C5.39302 14.017 5.13943 14.122 4.875 14.122C4.61057 14.122 4.35698 14.017 4.17 13.83C3.98302 13.643 3.87798 13.3894 3.87798 13.125C3.87798 12.8606 3.98302 12.607 4.17 12.42L5.59 11L4.17 9.58C4.0773 9.48749 4.00375 9.3776 3.95357 9.25662C3.90339 9.13565 3.87756 9.00597 3.87756 8.875C3.87756 8.74403 3.90339 8.61435 3.95357 8.49338C4.00375 8.3724 4.0773 8.26251 4.17 8.17V8.17ZM10.5 1L9.79 0.29C9.61 0.11 9.35 0 9.09 0H4.91C4.65 0 4.39 0.11 4.21 0.29L3.5 1H1C0.45 1 0 1.45 0 2C0 2.55 0.45 3 1 3H13C13.55 3 14 2.55 14 2C14 1.45 13.55 1 13 1H10.5Z" fill="white"/>
</svg>
