<svg width="63" height="64" viewBox="0 0 63 64" fill="none" xmlns="http://www.w3.org/2000/svg">
<path d="M42.6558 15.1351C42.3972 15.1356 42.1411 15.0848 41.9023 14.9856C41.6635 14.8863 41.4468 14.7407 41.2648 14.5571L31.4998 4.79505L21.7348 14.5571C21.5538 14.748 21.3363 14.9008 21.0953 15.0064C20.8542 15.112 20.5945 15.1682 20.3314 15.1717C20.0682 15.1752 19.8071 15.126 19.5633 15.0269C19.3195 14.9279 19.098 14.781 18.912 14.5949C18.7259 14.4088 18.579 14.1873 18.4799 13.9436C18.3808 13.6998 18.3316 13.4386 18.3351 13.1755C18.3387 12.9124 18.3949 12.6526 18.5004 12.4116C18.606 12.1705 18.7588 11.9531 18.9498 11.7721L30.1058 0.61605C30.4752 0.24691 30.9761 0.0395508 31.4983 0.0395508C32.0205 0.0395508 32.5214 0.24691 32.8908 0.61605L44.0478 11.7721C44.3232 12.0475 44.5108 12.3984 44.5869 12.7805C44.6629 13.1625 44.624 13.5585 44.475 13.9185C44.326 14.2784 44.0737 14.5861 43.7499 14.8026C43.4261 15.0192 43.0453 15.1349 42.6558 15.1351V15.1351Z" fill="white"/>
<path d="M31.5002 36.791C30.9781 36.7908 30.4775 36.5832 30.1082 36.214C29.739 35.8448 29.5315 35.3442 29.5312 34.822V2.01002C29.5475 1.49867 29.7621 1.01372 30.1296 0.657767C30.4971 0.301814 30.9886 0.102783 31.5002 0.102783C32.0119 0.102783 32.5034 0.301814 32.8709 0.657767C33.2384 1.01372 33.453 1.49867 33.4693 2.01002V34.822C33.469 35.3442 33.2615 35.8448 32.8923 36.214C32.5231 36.5832 32.0224 36.7908 31.5002 36.791V36.791Z" fill="white"/>
<path d="M55.781 63.0411H7.22C5.30572 63.0397 3.4702 62.2788 2.1165 60.9253C0.762808 59.5718 0.00158926 57.7363 0 55.8221L0 41.3851C0.00132348 40.1671 0.485758 38.9993 1.34701 38.1381C2.20827 37.2768 3.376 36.7924 4.594 36.7911H11.828C12.8176 36.7865 13.782 37.1034 14.5759 37.6943C15.3698 38.2851 15.9503 39.1178 16.23 40.0671L19.044 49.4491C19.0849 49.5839 19.168 49.702 19.281 49.7861C19.3941 49.8701 19.5311 49.9157 19.672 49.9161H43.328C43.4689 49.9157 43.6059 49.8701 43.719 49.7861C43.832 49.702 43.9151 49.5839 43.956 49.4491L46.77 40.0641C47.051 39.1158 47.6319 38.2842 48.4256 37.6941C49.2193 37.1039 50.183 36.7871 51.172 36.7911H58.406C59.624 36.7924 60.7917 37.2768 61.653 38.1381C62.5142 38.9993 62.9987 40.1671 63 41.3851V55.8221C62.9984 57.7362 62.2373 59.5714 60.8839 60.9249C59.5304 62.2784 57.6951 63.0395 55.781 63.0411V63.0411ZM4.594 40.7291C4.50777 40.7289 4.42236 40.7458 4.34265 40.7787C4.26295 40.8116 4.19051 40.8599 4.12949 40.9208C4.06847 40.9818 4.02006 41.0541 3.98703 41.1338C3.954 41.2134 3.937 41.2988 3.937 41.3851V55.8221C3.93806 56.6922 4.28418 57.5264 4.89944 58.1416C5.51471 58.7569 6.34888 59.103 7.219 59.1041H55.78C56.6501 59.103 57.4843 58.7569 58.0996 58.1416C58.7148 57.5264 59.0609 56.6922 59.062 55.8221V41.3851C59.062 41.2988 59.045 41.2134 59.012 41.1338C58.9789 41.0541 58.9305 40.9818 58.8695 40.9208C58.8085 40.8599 58.7361 40.8116 58.6563 40.7787C58.5766 40.7458 58.4912 40.7289 58.405 40.7291H51.171C51.0298 40.7281 50.8921 40.7732 50.7788 40.8575C50.6655 40.9417 50.5827 41.0606 50.543 41.1961L47.73 50.5801C47.4413 51.5239 46.8584 52.3506 46.0664 52.9396C45.2745 53.5286 44.315 53.849 43.328 53.8541H19.672C18.6824 53.8587 17.7181 53.5417 16.9241 52.9509C16.1302 52.3601 15.5497 51.5273 15.27 50.5781L12.456 41.1961C12.4163 41.0606 12.3335 40.9417 12.2202 40.8575C12.1069 40.7732 11.9692 40.7281 11.828 40.7291H4.594V40.7291Z" fill="white"/>
</svg>
